<?xml version="1.0" encoding="UTF-8" standalone="no"?>
<svg
   xmlns:dc="http://purl.org/dc/elements/1.1/"
   xmlns:cc="http://creativecommons.org/ns#"
   xmlns:rdf="http://www.w3.org/1999/02/22-rdf-syntax-ns#"
   xmlns:svg="http://www.w3.org/2000/svg"
   xmlns="http://www.w3.org/2000/svg"
   xmlns:sodipodi="http://sodipodi.sourceforge.net/DTD/sodipodi-0.dtd"
   xmlns:inkscape="http://www.inkscape.org/namespaces/inkscape"
   version="1.1"
   x="0px"
   y="0px"
   viewBox="0 0 100 125"
   enable-background="new 0 0 100 100"
   xml:space="preserve"
   id="svg18"
   sodipodi:docname="noun_305185_cc.svg"
   inkscape:export-filename="/home/alexis/Téléchargements/noun_305185_cc.svg.png"
   inkscape:export-xdpi="14.91465"
   inkscape:export-ydpi="14.91465"
   inkscape:version="0.92.1 r15371"><metadata
     id="metadata24"><rdf:RDF><cc:Work
         rdf:about=""><dc:format>image/svg+xml</dc:format><dc:type
           rdf:resource="http://purl.org/dc/dcmitype/StillImage" /></cc:Work></rdf:RDF></metadata><defs
     id="defs22" /><sodipodi:namedview
     pagecolor="#ffffff"
     bordercolor="#666666"
     borderopacity="1"
     objecttolerance="10"
     gridtolerance="10"
     guidetolerance="10"
     inkscape:pageopacity="0"
     inkscape:pageshadow="2"
     inkscape:window-width="1920"
     inkscape:window-height="1147"
     id="namedview20"
     showgrid="false"
     inkscape:zoom="1.888"
     inkscape:cx="-65.730932"
     inkscape:cy="62.5"
     inkscape:window-x="0"
     inkscape:window-y="27"
     inkscape:window-maximized="1"
     inkscape:current-layer="g12" /><g
     id="g12"
     transform="matrix(1.3167181,0,0,1.3167181,-14.776741,-3.6537021)"><path
       d="m 63.541225,77.770623 h -4.948 c -0.3,0 -0.541,-0.244 -0.541,-0.541 v -10.64 c 0,-1.005 -0.817,-1.823 -1.822,-1.823 h -9.962 c -1.008,0 -1.823,0.818 -1.823,1.823 v 10.64 c 0,0.297 -0.242,0.541 -0.54,0.541 h -4.948 c -1.007,0 -1.331,0.65 -0.723,1.452 l 11.918,16.069 c 0.605,0.804 1.589,0.804 2.196,0 l 11.918,-16.069 c 0.605,-0.802 0.284,-1.452 -0.725,-1.452 z"
       id="path2"
       inkscape:connector-curvature="0"
       style="fill:#b3b3b3" /><path
       d="m 67.478225,6.4096229 c -0.285,-0.283 -0.824,-0.515 -1.227,-0.515 h -42.942 c -0.805,0 -1.454,0.654 -1.452,1.458 V 34.140623 c 0,0.404 0.328,0.731 0.729,0.731 h 2.287 c 0.403,0 0.729,-0.327 0.729,-0.731 v -24.052 c 0,-0.3 0.241,-0.539 0.539,-0.539 h 37.085 c 0.3,0 0.54,0.239 0.542,0.539 l 0.004,11.041 c -0.01,0.807 0.641,1.458 1.446,1.458 h 11.139 c 0.296,0 0.54,0.243 0.54,0.54 v 59.499 c 0,0.297 -0.244,0.541 -0.54,0.541 l -11.805,-0.009 c -0.3,-0.003 -0.684,0.193 -0.86,0.433 l -2.042,2.765 c -0.174,0.239 -0.076,0.436 0.224,0.436 l 17.191,0.027 c 0.809,0 1.462,-0.652 1.462,-1.458 l 0.041,-65.165 c 0,-0.404 -0.231,-0.962 -0.516,-1.246 z"
       id="path4"
       inkscape:connector-curvature="0"
       style="fill:#b3b3b3" /><path
       d="m 38.713225,83.590623 c -0.178,-0.239 -0.561,-0.436 -0.86,-0.433 l -11.712,0.009 c -0.298,0 -0.539,-0.244 -0.539,-0.541 v -17.238 c 0,-0.402 -0.325,-0.727 -0.729,-0.727 h -2.287 c -0.401,0 -0.729,0.324 -0.729,0.727 v 19.973 c -0.002,0.806 0.647,1.458 1.452,1.458 l 17.223,-0.027 c 0.3,0 0.396,-0.196 0.22,-0.436 z"
       id="path6"
       inkscape:connector-curvature="0"
       style="fill:#b3b3b3" /><path
       d="m 45.840225,46.182623 c -0.206,-0.033 -0.711,-0.074 -1.941,-0.074 h -0.673 v 2.357 h 0.862 c 1.409,0 1.875,-0.112 2.011,-0.153 0.245,-0.089 0.429,-0.226 0.566,-0.406 0.131,-0.18 0.202,-0.381 0.202,-0.63 0,-0.311 -0.095,-0.539 -0.272,-0.722 -0.197,-0.203 -0.442,-0.321 -0.755,-0.372 z"
       id="path8"
       inkscape:connector-curvature="0"
       style="fill:#b3b3b3" /><path
       d="m 66.976225,60.120623 v -20.709 c 0,-0.814 -0.656,-1.46 -1.46,-1.46 h -47.039 c -0.81,0 -1.458,0.646 -1.452,1.46 l -0.006,20.708 c 0.002,0.814 0.662,1.458 1.472,1.458 h 47.025 c 0.803,10e-4 1.46,-0.643 1.46,-1.457 z m -34.452,-3.315 -0.201,-5.675 c -0.004,-0.152 -0.01,-0.311 -0.016,-0.474 -0.032,0.115 -0.067,0.231 -0.103,0.346 l -1.575,5.592 h -3.14 l -1.348,-5.404 -0.239,5.614 h -3.862 l 0.835,-14.227 h 4.732 l 1.295,4.889 c 0.147,0.597 0.282,1.153 0.401,1.676 0.14,-0.566 0.286,-1.142 0.436,-1.695 l 1.411,-4.871 h 4.657 l 0.716,14.227 h -3.999 z m 18.162,-7.255 c -0.37,0.63 -0.848,1.14 -1.434,1.499 -0.563,0.36 -1.148,0.592 -1.742,0.717 -0.741,0.137 -1.768,0.193 -3.122,0.193 h -1.162 v 4.879 h -4.289 v -14.226 h 5.311 c 1.83,0 3.004,0.079 3.602,0.223 0.962,0.221 1.777,0.728 2.422,1.491 0.65,0.76 0.972,1.741 0.972,2.911 -0.002,0.896 -0.187,1.675 -0.558,2.313 z m 5.761,7.61 c -1.785,0 -3.194,-0.534 -3.919,-1.03 l -0.269,-0.186 0.816,-3.26 0.533,0.303 c 0.228,0.129 1.415,0.763 2.63,0.763 1.117,0 1.785,-0.495 1.785,-1.326 0,-1.069 -1.084,-1.451 -2.013,-1.451 h -1.642 v -3.181 h 1.583 c 0.169,-0.002 1.73,-0.065 1.73,-1.079 0,-0.815 -0.847,-0.936 -1.351,-0.936 -0.94,0 -1.93,0.477 -2.323,0.731 l -0.541,0.349 -0.831,-3.208 0.267,-0.185 c 0.779,-0.545 2.34,-1.096 4.07,-1.096 2.685,0 4.562,1.567 4.562,3.808 0,1.302 -0.557,2.357 -1.59,3.055 1.231,0.627 2.007,1.875 2.007,3.357 0.002,2.735 -2.212,4.572 -5.504,4.572 z"
       id="path10"
       inkscape:connector-curvature="0"
       style="fill:#b3b3b3" /></g></svg>